<svg xmlns="http://www.w3.org/2000/svg" viewBox="2 1 21 21"> <path fill="#FFFFFF" d="M12 2C6.48 2 2 6.48 2 12a9.99 9.99 0 006.84 9.5c.5.09.68-.21.68-.48l-.01-1.7c-2.78.6-3.37-1.34-3.37-1.34-.45-1.12-1.1-1.41-1.1-1.41-.9-.6.07-.59.07-.59 1 .07 1.53 1 1.53 1 .89 1.49 2.34 1.06 2.9.81.09-.63.35-1.06.63-1.31-2.22-.25-4.56-1.08-4.56-4.8 0-1.06.38-1.94 1-2.62-.1-.25-.43-1.27.09-2.64 0 0 .82-.26 2.7 1a9.3 9.3 0 014.92 0c1.88-1.26 2.7-1 2.7-1 .52 1.37.19 2.39.09 2.64.62.68 1 1.56 1 2.62 0 3.73-2.34 4.54-4.57 4.79.36.31.68.93.68 1.89l-.01 2.81c0 .27.18.58.69.48A9.99 9.99 0 0022 12c0-5.52-4.48-10-10-10z"/></svg>